<svg xmlns="http://www.w3.org/2000/svg" version="1.1" xmlns:xlink="http://www.w3.org/1999/xlink" xmlns:svgjs="http://svgjs.com/svgjs" width="1440" height="560" preserveAspectRatio="none" viewBox="0 0 1440 560"><g mask="url(&quot;#SvgjsMask1004&quot;)" fill="none"><path d="M-46.39 404.25L-46.39 404.25" stroke="#132e65" stroke-width="1.5"></path><path d="M-46.39 404.25L-78.26 492.95" stroke="#132e65" stroke-width="1.5"></path><path d="M-46.39 404.25L70.25 348.53" stroke="#132e65" stroke-width="1.5"></path><path d="M-46.39 404.25L45.1 524.85" stroke="#132e65" stroke-width="1.5"></path><path d="M-46.39 404.25L208.33 411.48" stroke="#132e65" stroke-width="1.5"></path><path d="M-78.26 492.95L-78.26 492.95" stroke="#132e65" stroke-width="1.5"></path><path d="M-78.26 492.95L45.1 524.85" stroke="#132e65" stroke-width="1.5"></path><path d="M-78.26 492.95L-107.53 674.36" stroke="#132e65" stroke-width="1.5"></path><path d="M-107.53 674.36L-107.53 674.36" stroke="#132e65" stroke-width="1.5"></path><path d="M-107.53 674.36L46.91 657.46" stroke="#132e65" stroke-width="1.5"></path><path d="M-107.53 674.36L45.1 524.85" stroke="#132e65" stroke-width="1.5"></path><path d="M70.25 348.53L70.25 348.53" stroke="#132e65" stroke-width="1.5"></path><path d="M70.25 348.53L208.33 411.48" stroke="#132e65" stroke-width="1.5"></path><path d="M45.1 524.85L45.1 524.85" stroke="#132e65" stroke-width="1.5"></path><path d="M45.1 524.85L46.91 657.46" stroke="#132e65" stroke-width="1.5"></path><path d="M45.1 524.85L70.25 348.53" stroke="#132e65" stroke-width="1.5"></path><path d="M45.1 524.85L208.33 411.48" stroke="#132e65" stroke-width="1.5"></path><path d="M46.91 657.46L46.91 657.46" stroke="#132e65" stroke-width="1.5"></path><path d="M46.91 657.46L237.3 667.81" stroke="#132e65" stroke-width="1.5"></path><path d="M46.91 657.46L-78.26 492.95" stroke="#132e65" stroke-width="1.5"></path><path d="M46.91 657.46L259.36 495.87" stroke="#132e65" stroke-width="1.5"></path><path d="M46.91 657.46L-46.39 404.25" stroke="#132e65" stroke-width="1.5"></path><path d="M208.33 411.48L208.33 411.48" stroke="#132e65" stroke-width="1.5"></path><path d="M208.33 411.48L259.36 495.87" stroke="#132e65" stroke-width="1.5"></path><path d="M259.36 495.87L259.36 495.87" stroke="#132e65" stroke-width="1.5"></path><path d="M259.36 495.87L351.91 491.81" stroke="#132e65" stroke-width="1.5"></path><path d="M259.36 495.87L351.04 389.37" stroke="#132e65" stroke-width="1.5"></path><path d="M237.3 667.81L237.3 667.81" stroke="#132e65" stroke-width="1.5"></path><path d="M237.3 667.81L396.89 643.16" stroke="#132e65" stroke-width="1.5"></path><path d="M237.3 667.81L259.36 495.87" stroke="#132e65" stroke-width="1.5"></path><path d="M237.3 667.81L351.91 491.81" stroke="#132e65" stroke-width="1.5"></path><path d="M237.3 667.81L45.1 524.85" stroke="#132e65" stroke-width="1.5"></path><path d="M237.3 667.81L208.33 411.48" stroke="#132e65" stroke-width="1.5"></path><path d="M351.04 389.37L351.04 389.37" stroke="#132e65" stroke-width="1.5"></path><path d="M351.04 389.37L351.91 491.81" stroke="#132e65" stroke-width="1.5"></path><path d="M351.04 389.37L208.33 411.48" stroke="#132e65" stroke-width="1.5"></path><path d="M351.04 389.37L494.64 359.2" stroke="#132e65" stroke-width="1.5"></path><path d="M351.91 491.81L351.91 491.81" stroke="#132e65" stroke-width="1.5"></path><path d="M396.89 643.16L396.89 643.16" stroke="#132e65" stroke-width="1.5"></path><path d="M396.89 643.16L513.91 708.33" stroke="#132e65" stroke-width="1.5"></path><path d="M396.89 643.16L351.91 491.81" stroke="#132e65" stroke-width="1.5"></path><path d="M396.89 643.16L527.07 518.02" stroke="#132e65" stroke-width="1.5"></path><path d="M396.89 643.16L259.36 495.87" stroke="#132e65" stroke-width="1.5"></path><path d="M396.89 643.16L351.04 389.37" stroke="#132e65" stroke-width="1.5"></path><path d="M494.64 359.2L494.64 359.2" stroke="#132e65" stroke-width="1.5"></path><path d="M494.64 359.2L527.07 518.02" stroke="#132e65" stroke-width="1.5"></path><path d="M494.64 359.2L351.91 491.81" stroke="#132e65" stroke-width="1.5"></path><path d="M527.07 518.02L527.07 518.02" stroke="#132e65" stroke-width="1.5"></path><path d="M527.07 518.02L690.38 523.46" stroke="#132e65" stroke-width="1.5"></path><path d="M527.07 518.02L351.91 491.81" stroke="#132e65" stroke-width="1.5"></path><path d="M527.07 518.02L513.91 708.33" stroke="#132e65" stroke-width="1.5"></path><path d="M527.07 518.02L351.04 389.37" stroke="#132e65" stroke-width="1.5"></path><path d="M513.91 708.33L513.91 708.33" stroke="#132e65" stroke-width="1.5"></path><path d="M513.91 708.33L655.88 709.92" stroke="#132e65" stroke-width="1.5"></path><path d="M513.91 708.33L690.38 523.46" stroke="#132e65" stroke-width="1.5"></path><path d="M513.91 708.33L351.91 491.81" stroke="#132e65" stroke-width="1.5"></path><path d="M708.97 382.91L708.97 382.91" stroke="#132e65" stroke-width="1.5"></path><path d="M708.97 382.91L690.38 523.46" stroke="#132e65" stroke-width="1.5"></path><path d="M708.97 382.91L851.78 398.18" stroke="#132e65" stroke-width="1.5"></path><path d="M708.97 382.91L792.52 534.63" stroke="#132e65" stroke-width="1.5"></path><path d="M690.38 523.46L690.38 523.46" stroke="#132e65" stroke-width="1.5"></path><path d="M690.38 523.46L792.52 534.63" stroke="#132e65" stroke-width="1.5"></path><path d="M655.88 709.92L655.88 709.92" stroke="#132e65" stroke-width="1.5"></path><path d="M655.88 709.92L690.38 523.46" stroke="#132e65" stroke-width="1.5"></path><path d="M655.88 709.92L857.43 696.54" stroke="#132e65" stroke-width="1.5"></path><path d="M849.09 190.42L849.09 190.42" stroke="#132e65" stroke-width="1.5"></path><path d="M849.09 190.42L988.3 260.14" stroke="#132e65" stroke-width="1.5"></path><path d="M851.78 398.18L851.78 398.18" stroke="#132e65" stroke-width="1.5"></path><path d="M851.78 398.18L792.52 534.63" stroke="#132e65" stroke-width="1.5"></path><path d="M851.78 398.18L1000.18 376.72" stroke="#132e65" stroke-width="1.5"></path><path d="M792.52 534.63L792.52 534.63" stroke="#132e65" stroke-width="1.5"></path><path d="M857.43 696.54L857.43 696.54" stroke="#132e65" stroke-width="1.5"></path><path d="M857.43 696.54L792.52 534.63" stroke="#132e65" stroke-width="1.5"></path><path d="M857.43 696.54L987.15 559.86" stroke="#132e65" stroke-width="1.5"></path><path d="M997.35 -109.81L997.35 -109.81" stroke="#132e65" stroke-width="1.5"></path><path d="M997.35 -109.81L1128.08 -71.63" stroke="#132e65" stroke-width="1.5"></path><path d="M997.35 -109.81L1128.58 49.49" stroke="#132e65" stroke-width="1.5"></path><path d="M997.35 -109.81L1011.97 112.5" stroke="#132e65" stroke-width="1.5"></path><path d="M997.35 -109.81L1274.55 -48.78" stroke="#132e65" stroke-width="1.5"></path><path d="M997.35 -109.81L849.09 190.42" stroke="#132e65" stroke-width="1.5"></path><path d="M997.35 -109.81L988.3 260.14" stroke="#132e65" stroke-width="1.5"></path><path d="M1011.97 112.5L1011.97 112.5" stroke="#132e65" stroke-width="1.5"></path><path d="M1011.97 112.5L1128.58 49.49" stroke="#132e65" stroke-width="1.5"></path><path d="M1011.97 112.5L988.3 260.14" stroke="#132e65" stroke-width="1.5"></path><path d="M1011.97 112.5L849.09 190.42" stroke="#132e65" stroke-width="1.5"></path><path d="M1011.97 112.5L1138.94 255.53" stroke="#132e65" stroke-width="1.5"></path><path d="M988.3 260.14L988.3 260.14" stroke="#132e65" stroke-width="1.5"></path><path d="M988.3 260.14L1000.18 376.72" stroke="#132e65" stroke-width="1.5"></path><path d="M988.3 260.14L1138.94 255.53" stroke="#132e65" stroke-width="1.5"></path><path d="M1000.18 376.72L1000.18 376.72" stroke="#132e65" stroke-width="1.5"></path><path d="M1000.18 376.72L1094.38 390.79" stroke="#132e65" stroke-width="1.5"></path><path d="M1000.18 376.72L987.15 559.86" stroke="#132e65" stroke-width="1.5"></path><path d="M1000.18 376.72L1138.94 255.53" stroke="#132e65" stroke-width="1.5"></path><path d="M1000.18 376.72L1161.27 495.43" stroke="#132e65" stroke-width="1.5"></path><path d="M987.15 559.86L987.15 559.86" stroke="#132e65" stroke-width="1.5"></path><path d="M987.15 559.86L1161.27 495.43" stroke="#132e65" stroke-width="1.5"></path><path d="M987.15 559.86L792.52 534.63" stroke="#132e65" stroke-width="1.5"></path><path d="M1128.08 -71.63L1128.08 -71.63" stroke="#132e65" stroke-width="1.5"></path><path d="M1128.08 -71.63L1128.58 49.49" stroke="#132e65" stroke-width="1.5"></path><path d="M1128.58 49.49L1128.58 49.49" stroke="#132e65" stroke-width="1.5"></path><path d="M1128.58 49.49L1274.55 -48.78" stroke="#132e65" stroke-width="1.5"></path><path d="M1128.58 49.49L1138.94 255.53" stroke="#132e65" stroke-width="1.5"></path><path d="M1138.94 255.53L1138.94 255.53" stroke="#132e65" stroke-width="1.5"></path><path d="M1138.94 255.53L1270.21 218.86" stroke="#132e65" stroke-width="1.5"></path><path d="M1138.94 255.53L1094.38 390.79" stroke="#132e65" stroke-width="1.5"></path><path d="M1094.38 390.79L1094.38 390.79" stroke="#132e65" stroke-width="1.5"></path><path d="M1094.38 390.79L1161.27 495.43" stroke="#132e65" stroke-width="1.5"></path><path d="M1094.38 390.79L1240.63 357.21" stroke="#132e65" stroke-width="1.5"></path><path d="M1094.38 390.79L988.3 260.14" stroke="#132e65" stroke-width="1.5"></path><path d="M1094.38 390.79L987.15 559.86" stroke="#132e65" stroke-width="1.5"></path><path d="M1161.27 495.43L1161.27 495.43" stroke="#132e65" stroke-width="1.5"></path><path d="M1161.27 495.43L1288.31 488.39" stroke="#132e65" stroke-width="1.5"></path><path d="M1161.27 495.43L1240.63 357.21" stroke="#132e65" stroke-width="1.5"></path><path d="M1161.27 495.43L1254.67 670.06" stroke="#132e65" stroke-width="1.5"></path><path d="M1274.55 -48.78L1274.55 -48.78" stroke="#132e65" stroke-width="1.5"></path><path d="M1274.55 -48.78L1401.29 -93.01" stroke="#132e65" stroke-width="1.5"></path><path d="M1274.55 -48.78L1128.08 -71.63" stroke="#132e65" stroke-width="1.5"></path><path d="M1274.55 -48.78L1389.32 101.81" stroke="#132e65" stroke-width="1.5"></path><path d="M1270.21 218.86L1270.21 218.86" stroke="#132e65" stroke-width="1.5"></path><path d="M1270.21 218.86L1240.63 357.21" stroke="#132e65" stroke-width="1.5"></path><path d="M1240.63 357.21L1240.63 357.21" stroke="#132e65" stroke-width="1.5"></path><path d="M1240.63 357.21L1288.31 488.39" stroke="#132e65" stroke-width="1.5"></path><path d="M1240.63 357.21L1138.94 255.53" stroke="#132e65" stroke-width="1.5"></path><path d="M1288.31 488.39L1288.31 488.39" stroke="#132e65" stroke-width="1.5"></path><path d="M1288.31 488.39L1403.99 385.3" stroke="#132e65" stroke-width="1.5"></path><path d="M1254.67 670.06L1254.67 670.06" stroke="#132e65" stroke-width="1.5"></path><path d="M1254.67 670.06L1429.69 642.64" stroke="#132e65" stroke-width="1.5"></path><path d="M1254.67 670.06L1288.31 488.39" stroke="#132e65" stroke-width="1.5"></path><path d="M1401.29 -93.01L1401.29 -93.01" stroke="#132e65" stroke-width="1.5"></path><path d="M1401.29 -93.01L1389.32 101.81" stroke="#132e65" stroke-width="1.5"></path><path d="M1401.29 -93.01L1606.79 -65.7" stroke="#132e65" stroke-width="1.5"></path><path d="M1389.32 101.81L1389.32 101.81" stroke="#132e65" stroke-width="1.5"></path><path d="M1389.32 101.81L1455.01 220.22" stroke="#132e65" stroke-width="1.5"></path><path d="M1389.32 101.81L1270.21 218.86" stroke="#132e65" stroke-width="1.5"></path><path d="M1455.01 220.22L1455.01 220.22" stroke="#132e65" stroke-width="1.5"></path><path d="M1455.01 220.22L1552.21 228.78" stroke="#132e65" stroke-width="1.5"></path><path d="M1455.01 220.22L1403.99 385.3" stroke="#132e65" stroke-width="1.5"></path><path d="M1403.99 385.3L1403.99 385.3" stroke="#132e65" stroke-width="1.5"></path><path d="M1403.99 385.3L1240.63 357.21" stroke="#132e65" stroke-width="1.5"></path><path d="M1403.99 385.3L1270.21 218.86" stroke="#132e65" stroke-width="1.5"></path><path d="M1403.99 385.3L1552.21 228.78" stroke="#132e65" stroke-width="1.5"></path><path d="M1429.69 642.64L1429.69 642.64" stroke="#132e65" stroke-width="1.5"></path><path d="M1429.69 642.64L1604.08 640.85" stroke="#132e65" stroke-width="1.5"></path><path d="M1429.69 642.64L1580.21 531.17" stroke="#132e65" stroke-width="1.5"></path><path d="M1606.79 -65.7L1606.79 -65.7" stroke="#132e65" stroke-width="1.5"></path><path d="M1606.79 -65.7L1592.46 48.74" stroke="#132e65" stroke-width="1.5"></path><path d="M1606.79 -65.7L1389.32 101.81" stroke="#132e65" stroke-width="1.5"></path><path d="M1592.46 48.74L1592.46 48.74" stroke="#132e65" stroke-width="1.5"></path><path d="M1592.46 48.74L1552.21 228.78" stroke="#132e65" stroke-width="1.5"></path><path d="M1552.21 228.78L1552.21 228.78" stroke="#132e65" stroke-width="1.5"></path><path d="M1580.21 531.17L1580.21 531.17" stroke="#132e65" stroke-width="1.5"></path><path d="M1580.21 531.17L1604.08 640.85" stroke="#132e65" stroke-width="1.5"></path><path d="M1580.21 531.17L1403.99 385.3" stroke="#132e65" stroke-width="1.5"></path><path d="M1580.21 531.17L1288.31 488.39" stroke="#132e65" stroke-width="1.5"></path><path d="M1604.08 640.85L1604.08 640.85" stroke="#132e65" stroke-width="1.5"></path><path d="M1604.08 640.85L1403.99 385.3" stroke="#132e65" stroke-width="1.5"></path><path d="M1604.08 640.85L1254.67 670.06" stroke="#132e65" stroke-width="1.5"></path><circle r="5" cx="-46.39" cy="404.25" fill="#132e65"></circle><circle r="5" cx="-78.26" cy="492.95" fill="#132e65"></circle><circle r="5" cx="-107.53" cy="674.36" fill="#132e65"></circle><circle r="5" cx="70.25" cy="348.53" fill="#132e65"></circle><circle r="5" cx="45.1" cy="524.85" fill="#132e65"></circle><circle r="5" cx="46.91" cy="657.46" fill="#132e65"></circle><circle r="5" cx="208.33" cy="411.48" fill="#132e65"></circle><circle r="5" cx="259.36" cy="495.87" fill="#132e65"></circle><circle r="5" cx="237.3" cy="667.81" fill="#132e65"></circle><circle r="5" cx="351.04" cy="389.37" fill="#132e65"></circle><circle r="5" cx="351.91" cy="491.81" fill="#132e65"></circle><circle r="5" cx="396.89" cy="643.16" fill="#132e65"></circle><circle r="5" cx="494.64" cy="359.2" fill="#132e65"></circle><circle r="5" cx="527.07" cy="518.02" fill="#132e65"></circle><circle r="5" cx="513.91" cy="708.33" fill="#132e65"></circle><circle r="5" cx="708.97" cy="382.91" fill="#132e65"></circle><circle r="5" cx="690.38" cy="523.46" fill="#132e65"></circle><circle r="5" cx="655.88" cy="709.92" fill="#132e65"></circle><circle r="5" cx="849.09" cy="190.42" fill="#132e65"></circle><circle r="5" cx="851.78" cy="398.18" fill="#132e65"></circle><circle r="5" cx="792.52" cy="534.63" fill="#132e65"></circle><circle r="5" cx="857.43" cy="696.54" fill="#132e65"></circle><circle r="5" cx="997.35" cy="-109.81" fill="#132e65"></circle><circle r="5" cx="1011.97" cy="112.5" fill="#132e65"></circle><circle r="5" cx="988.3" cy="260.14" fill="#132e65"></circle><circle r="5" cx="1000.18" cy="376.72" fill="#132e65"></circle><circle r="5" cx="987.15" cy="559.86" fill="#132e65"></circle><circle r="5" cx="1128.08" cy="-71.63" fill="#132e65"></circle><circle r="5" cx="1128.58" cy="49.49" fill="#132e65"></circle><circle r="5" cx="1138.94" cy="255.53" fill="#132e65"></circle><circle r="5" cx="1094.38" cy="390.79" fill="#132e65"></circle><circle r="5" cx="1161.27" cy="495.43" fill="#132e65"></circle><circle r="5" cx="1274.55" cy="-48.78" fill="#132e65"></circle><circle r="5" cx="1270.21" cy="218.86" fill="#132e65"></circle><circle r="5" cx="1240.63" cy="357.21" fill="#132e65"></circle><circle r="5" cx="1288.31" cy="488.39" fill="#132e65"></circle><circle r="5" cx="1254.67" cy="670.06" fill="#132e65"></circle><circle r="5" cx="1401.29" cy="-93.01" fill="#132e65"></circle><circle r="5" cx="1389.32" cy="101.81" fill="#132e65"></circle><circle r="5" cx="1455.01" cy="220.22" fill="#132e65"></circle><circle r="5" cx="1403.99" cy="385.3" fill="#132e65"></circle><circle r="5" cx="1429.69" cy="642.64" fill="#132e65"></circle><circle r="5" cx="1606.79" cy="-65.7" fill="#132e65"></circle><circle r="5" cx="1592.46" cy="48.74" fill="#132e65"></circle><circle r="5" cx="1552.21" cy="228.78" fill="#132e65"></circle><circle r="5" cx="1580.21" cy="531.17" fill="#132e65"></circle><circle r="5" cx="1604.08" cy="640.85" fill="#132e65"></circle><path d="M712.35 367.84L712.35 367.84" stroke="hsl(304.1, 70.2%, 42.8%)" stroke-width="1.5"></path><path d="M712.35 367.84L812.8 362.2" stroke="hsl(304.1, 70.2%, 42.8%)" stroke-width="1.5"></path><path d="M712.35 367.84L681.54 526.2" stroke="hsl(304.1, 70.2%, 42.8%)" stroke-width="1.5"></path><path d="M712.35 367.84L797.74 524.47" stroke="hsl(304.1, 70.2%, 42.8%)" stroke-width="1.5"></path><path d="M712.35 367.84L939.71 380.69" stroke="hsl(304.1, 70.2%, 42.8%)" stroke-width="1.5"></path><path d="M939.71 380.69L939.71 380.69" stroke="hsl(304.1, 70.2%, 42.8%)" stroke-width="1.5"></path><path d="M939.71 380.69L974.8 491.9" stroke="hsl(304.1, 70.2%, 42.8%)" stroke-width="1.5"></path><path d="M1087.84 554.7L1087.84 554.7" stroke="hsl(304.1, 70.2%, 42.8%)" stroke-width="1.5"></path><path d="M1087.84 554.7L1135.39 657.61" stroke="hsl(304.1, 70.2%, 42.8%)" stroke-width="1.5"></path><path d="M1087.84 554.7L974.8 491.9" stroke="hsl(304.1, 70.2%, 42.8%)" stroke-width="1.5"></path><path d="M1087.84 554.7L1106.1 389.3" stroke="hsl(304.1, 70.2%, 42.8%)" stroke-width="1.5"></path><path d="M1087.84 554.7L948 650.02" stroke="hsl(304.1, 70.2%, 42.8%)" stroke-width="1.5"></path><path d="M1087.84 554.7L1310.92 546.97" stroke="hsl(304.1, 70.2%, 42.8%)" stroke-width="1.5"></path><path d="M1087.84 554.7L939.71 380.69" stroke="hsl(304.1, 70.2%, 42.8%)" stroke-width="1.5"></path><path d="M1265.97 -68.43L1265.97 -68.43" stroke="hsl(304.1, 70.2%, 42.8%)" stroke-width="1.5"></path><path d="M1265.97 -68.43L1389.96 -74.2" stroke="hsl(304.1, 70.2%, 42.8%)" stroke-width="1.5"></path><path d="M1265.97 -68.43L1282.74 93.37" stroke="hsl(304.1, 70.2%, 42.8%)" stroke-width="1.5"></path><path d="M1265.97 -68.43L1417.41 43.81" stroke="hsl(304.1, 70.2%, 42.8%)" stroke-width="1.5"></path><path d="M1265.97 -68.43L1286.55 228.67" stroke="hsl(304.1, 70.2%, 42.8%)" stroke-width="1.5"></path><path d="M1265.97 -68.43L1540.74 103.69" stroke="hsl(304.1, 70.2%, 42.8%)" stroke-width="1.5"></path><path d="M1310.92 546.97L1310.92 546.97" stroke="hsl(304.1, 70.2%, 42.8%)" stroke-width="1.5"></path><path d="M1310.92 546.97L1297.33 667.17" stroke="hsl(304.1, 70.2%, 42.8%)" stroke-width="1.5"></path><path d="M1310.92 546.97L1445.42 536.85" stroke="hsl(304.1, 70.2%, 42.8%)" stroke-width="1.5"></path><path d="M1310.92 546.97L1441.11 655.15" stroke="hsl(304.1, 70.2%, 42.8%)" stroke-width="1.5"></path><path d="M1297.33 667.17L1297.33 667.17" stroke="hsl(304.1, 70.2%, 42.8%)" stroke-width="1.5"></path><path d="M1297.33 667.17L1441.11 655.15" stroke="hsl(304.1, 70.2%, 42.8%)" stroke-width="1.5"></path><path d="M1439.86 375.94L1439.86 375.94" stroke="hsl(304.1, 70.2%, 42.8%)" stroke-width="1.5"></path><path d="M1439.86 375.94L1544.41 351.79" stroke="hsl(304.1, 70.2%, 42.8%)" stroke-width="1.5"></path><path d="M1439.86 375.94L1432.55 262.08" stroke="hsl(304.1, 70.2%, 42.8%)" stroke-width="1.5"></path><path d="M1439.86 375.94L1445.42 536.85" stroke="hsl(304.1, 70.2%, 42.8%)" stroke-width="1.5"></path><path d="M1439.86 375.94L1252.1 384.44" stroke="hsl(304.1, 70.2%, 42.8%)" stroke-width="1.5"></path><path d="M1441.11 655.15L1441.11 655.15" stroke="hsl(304.1, 70.2%, 42.8%)" stroke-width="1.5"></path><path d="M1441.11 655.15L1445.42 536.85" stroke="hsl(304.1, 70.2%, 42.8%)" stroke-width="1.5"></path><path d="M1441.11 655.15L1591.57 689.01" stroke="hsl(304.1, 70.2%, 42.8%)" stroke-width="1.5"></path><path d="M1441.11 655.15L1555.46 527.49" stroke="hsl(304.1, 70.2%, 42.8%)" stroke-width="1.5"></path><path d="M1441.11 655.15L1439.86 375.94" stroke="hsl(304.1, 70.2%, 42.8%)" stroke-width="1.5"></path><path d="M1555.46 527.49L1555.46 527.49" stroke="hsl(304.1, 70.2%, 42.8%)" stroke-width="1.5"></path><path d="M1555.46 527.49L1445.42 536.85" stroke="hsl(304.1, 70.2%, 42.8%)" stroke-width="1.5"></path><path d="M1555.46 527.49L1591.57 689.01" stroke="hsl(304.1, 70.2%, 42.8%)" stroke-width="1.5"></path><path d="M1555.46 527.49L1544.41 351.79" stroke="hsl(304.1, 70.2%, 42.8%)" stroke-width="1.5"></path><path d="M1555.46 527.49L1439.86 375.94" stroke="hsl(304.1, 70.2%, 42.8%)" stroke-width="1.5"></path><path d="M-72.11 503.9L-72.11 503.9" stroke="hsl(304.1, 70.2%, 42.8%)" stroke-width="1.5"></path><path d="M-72.11 503.9L85.63 509.14" stroke="hsl(304.1, 70.2%, 42.8%)" stroke-width="1.5"></path><path d="M-72.11 503.9L-111.05 697.47" stroke="hsl(304.1, 70.2%, 42.8%)" stroke-width="1.5"></path><path d="M-72.11 503.9L54.95 682.2" stroke="hsl(304.1, 70.2%, 42.8%)" stroke-width="1.5"></path><path d="M-72.11 503.9L213.92 506.85" stroke="hsl(304.1, 70.2%, 42.8%)" stroke-width="1.5"></path><path d="M-72.11 503.9L207.5 651.97" stroke="hsl(304.1, 70.2%, 42.8%)" stroke-width="1.5"></path><path d="M-111.05 697.47L-111.05 697.47" stroke="hsl(304.1, 70.2%, 42.8%)" stroke-width="1.5"></path><path d="M-111.05 697.47L54.95 682.2" stroke="hsl(304.1, 70.2%, 42.8%)" stroke-width="1.5"></path><path d="M-111.05 697.47L85.63 509.14" stroke="hsl(304.1, 70.2%, 42.8%)" stroke-width="1.5"></path><path d="M85.63 509.14L85.63 509.14" stroke="hsl(304.1, 70.2%, 42.8%)" stroke-width="1.5"></path><path d="M85.63 509.14L213.92 506.85" stroke="hsl(304.1, 70.2%, 42.8%)" stroke-width="1.5"></path><path d="M54.95 682.2L54.95 682.2" stroke="hsl(304.1, 70.2%, 42.8%)" stroke-width="1.5"></path><path d="M54.95 682.2L207.5 651.97" stroke="hsl(304.1, 70.2%, 42.8%)" stroke-width="1.5"></path><path d="M54.95 682.2L85.63 509.14" stroke="hsl(304.1, 70.2%, 42.8%)" stroke-width="1.5"></path><path d="M54.95 682.2L213.92 506.85" stroke="hsl(304.1, 70.2%, 42.8%)" stroke-width="1.5"></path><path d="M54.95 682.2L353.93 497.24" stroke="hsl(304.1, 70.2%, 42.8%)" stroke-width="1.5"></path><path d="M213.92 506.85L213.92 506.85" stroke="hsl(304.1, 70.2%, 42.8%)" stroke-width="1.5"></path><path d="M213.92 506.85L353.93 497.24" stroke="hsl(304.1, 70.2%, 42.8%)" stroke-width="1.5"></path><path d="M213.92 506.85L207.5 651.97" stroke="hsl(304.1, 70.2%, 42.8%)" stroke-width="1.5"></path><path d="M207.5 651.97L207.5 651.97" stroke="hsl(304.1, 70.2%, 42.8%)" stroke-width="1.5"></path><path d="M207.5 651.97L85.63 509.14" stroke="hsl(304.1, 70.2%, 42.8%)" stroke-width="1.5"></path><path d="M207.5 651.97L353.93 497.24" stroke="hsl(304.1, 70.2%, 42.8%)" stroke-width="1.5"></path><path d="M353.93 497.24L353.93 497.24" stroke="hsl(304.1, 70.2%, 42.8%)" stroke-width="1.5"></path><path d="M353.93 497.24L534.12 554.32" stroke="hsl(304.1, 70.2%, 42.8%)" stroke-width="1.5"></path><path d="M353.93 497.24L85.63 509.14" stroke="hsl(304.1, 70.2%, 42.8%)" stroke-width="1.5"></path><path d="M353.93 497.24L549.23 691.16" stroke="hsl(304.1, 70.2%, 42.8%)" stroke-width="1.5"></path><path d="M353.93 497.24L681.54 526.2" stroke="hsl(304.1, 70.2%, 42.8%)" stroke-width="1.5"></path><path d="M534.12 554.32L534.12 554.32" stroke="hsl(304.1, 70.2%, 42.8%)" stroke-width="1.5"></path><path d="M534.12 554.32L549.23 691.16" stroke="hsl(304.1, 70.2%, 42.8%)" stroke-width="1.5"></path><path d="M534.12 554.32L681.54 526.2" stroke="hsl(304.1, 70.2%, 42.8%)" stroke-width="1.5"></path><path d="M549.23 691.16L549.23 691.16" stroke="hsl(304.1, 70.2%, 42.8%)" stroke-width="1.5"></path><path d="M549.23 691.16L661.48 697.32" stroke="hsl(304.1, 70.2%, 42.8%)" stroke-width="1.5"></path><path d="M549.23 691.16L681.54 526.2" stroke="hsl(304.1, 70.2%, 42.8%)" stroke-width="1.5"></path><path d="M549.23 691.16L794.67 702.83" stroke="hsl(304.1, 70.2%, 42.8%)" stroke-width="1.5"></path><path d="M681.54 526.2L681.54 526.2" stroke="hsl(304.1, 70.2%, 42.8%)" stroke-width="1.5"></path><path d="M681.54 526.2L797.74 524.47" stroke="hsl(304.1, 70.2%, 42.8%)" stroke-width="1.5"></path><path d="M681.54 526.2L661.48 697.32" stroke="hsl(304.1, 70.2%, 42.8%)" stroke-width="1.5"></path><path d="M681.54 526.2L794.67 702.83" stroke="hsl(304.1, 70.2%, 42.8%)" stroke-width="1.5"></path><path d="M681.54 526.2L812.8 362.2" stroke="hsl(304.1, 70.2%, 42.8%)" stroke-width="1.5"></path><path d="M661.48 697.32L661.48 697.32" stroke="hsl(304.1, 70.2%, 42.8%)" stroke-width="1.5"></path><path d="M661.48 697.32L794.67 702.83" stroke="hsl(304.1, 70.2%, 42.8%)" stroke-width="1.5"></path><path d="M812.8 362.2L812.8 362.2" stroke="hsl(304.1, 70.2%, 42.8%)" stroke-width="1.5"></path><path d="M812.8 362.2L939.71 380.69" stroke="hsl(304.1, 70.2%, 42.8%)" stroke-width="1.5"></path><path d="M812.8 362.2L797.74 524.47" stroke="hsl(304.1, 70.2%, 42.8%)" stroke-width="1.5"></path><path d="M812.8 362.2L974.8 491.9" stroke="hsl(304.1, 70.2%, 42.8%)" stroke-width="1.5"></path><path d="M812.8 362.2L1106.1 389.3" stroke="hsl(304.1, 70.2%, 42.8%)" stroke-width="1.5"></path><path d="M797.74 524.47L797.74 524.47" stroke="hsl(304.1, 70.2%, 42.8%)" stroke-width="1.5"></path><path d="M797.74 524.47L794.67 702.83" stroke="hsl(304.1, 70.2%, 42.8%)" stroke-width="1.5"></path><path d="M794.67 702.83L794.67 702.83" stroke="hsl(304.1, 70.2%, 42.8%)" stroke-width="1.5"></path><path d="M794.67 702.83L948 650.02" stroke="hsl(304.1, 70.2%, 42.8%)" stroke-width="1.5"></path><path d="M974.8 491.9L974.8 491.9" stroke="hsl(304.1, 70.2%, 42.8%)" stroke-width="1.5"></path><path d="M974.8 491.9L948 650.02" stroke="hsl(304.1, 70.2%, 42.8%)" stroke-width="1.5"></path><path d="M974.8 491.9L1106.1 389.3" stroke="hsl(304.1, 70.2%, 42.8%)" stroke-width="1.5"></path><path d="M948 650.02L948 650.02" stroke="hsl(304.1, 70.2%, 42.8%)" stroke-width="1.5"></path><path d="M948 650.02L1135.39 657.61" stroke="hsl(304.1, 70.2%, 42.8%)" stroke-width="1.5"></path><path d="M1106.1 389.3L1106.1 389.3" stroke="hsl(304.1, 70.2%, 42.8%)" stroke-width="1.5"></path><path d="M1106.1 389.3L1252.1 384.44" stroke="hsl(304.1, 70.2%, 42.8%)" stroke-width="1.5"></path><path d="M1106.1 389.3L939.71 380.69" stroke="hsl(304.1, 70.2%, 42.8%)" stroke-width="1.5"></path><path d="M1106.1 389.3L1286.55 228.67" stroke="hsl(304.1, 70.2%, 42.8%)" stroke-width="1.5"></path><path d="M1106.1 389.3L1310.92 546.97" stroke="hsl(304.1, 70.2%, 42.8%)" stroke-width="1.5"></path><path d="M1135.39 657.61L1135.39 657.61" stroke="hsl(304.1, 70.2%, 42.8%)" stroke-width="1.5"></path><path d="M1135.39 657.61L1297.33 667.17" stroke="hsl(304.1, 70.2%, 42.8%)" stroke-width="1.5"></path><path d="M1282.74 93.37L1282.74 93.37" stroke="hsl(304.1, 70.2%, 42.8%)" stroke-width="1.5"></path><path d="M1282.74 93.37L1286.55 228.67" stroke="hsl(304.1, 70.2%, 42.8%)" stroke-width="1.5"></path><path d="M1282.74 93.37L1417.41 43.81" stroke="hsl(304.1, 70.2%, 42.8%)" stroke-width="1.5"></path><path d="M1282.74 93.37L1389.96 -74.2" stroke="hsl(304.1, 70.2%, 42.8%)" stroke-width="1.5"></path><path d="M1282.74 93.37L1432.55 262.08" stroke="hsl(304.1, 70.2%, 42.8%)" stroke-width="1.5"></path><path d="M1286.55 228.67L1286.55 228.67" stroke="hsl(304.1, 70.2%, 42.8%)" stroke-width="1.5"></path><path d="M1286.55 228.67L1432.55 262.08" stroke="hsl(304.1, 70.2%, 42.8%)" stroke-width="1.5"></path><path d="M1286.55 228.67L1252.1 384.44" stroke="hsl(304.1, 70.2%, 42.8%)" stroke-width="1.5"></path><path d="M1286.55 228.67L1439.86 375.94" stroke="hsl(304.1, 70.2%, 42.8%)" stroke-width="1.5"></path><path d="M1252.1 384.44L1252.1 384.44" stroke="hsl(304.1, 70.2%, 42.8%)" stroke-width="1.5"></path><path d="M1252.1 384.44L1310.92 546.97" stroke="hsl(304.1, 70.2%, 42.8%)" stroke-width="1.5"></path><path d="M1389.96 -74.2L1389.96 -74.2" stroke="hsl(304.1, 70.2%, 42.8%)" stroke-width="1.5"></path><path d="M1389.96 -74.2L1417.41 43.81" stroke="hsl(304.1, 70.2%, 42.8%)" stroke-width="1.5"></path><path d="M1389.96 -74.2L1540.74 103.69" stroke="hsl(304.1, 70.2%, 42.8%)" stroke-width="1.5"></path><path d="M1389.96 -74.2L1286.55 228.67" stroke="hsl(304.1, 70.2%, 42.8%)" stroke-width="1.5"></path><path d="M1417.41 43.81L1417.41 43.81" stroke="hsl(304.1, 70.2%, 42.8%)" stroke-width="1.5"></path><path d="M1417.41 43.81L1540.74 103.69" stroke="hsl(304.1, 70.2%, 42.8%)" stroke-width="1.5"></path><path d="M1432.55 262.08L1432.55 262.08" stroke="hsl(304.1, 70.2%, 42.8%)" stroke-width="1.5"></path><path d="M1432.55 262.08L1544.41 351.79" stroke="hsl(304.1, 70.2%, 42.8%)" stroke-width="1.5"></path><path d="M1432.55 262.08L1540.74 103.69" stroke="hsl(304.1, 70.2%, 42.8%)" stroke-width="1.5"></path><path d="M1445.42 536.85L1445.42 536.85" stroke="hsl(304.1, 70.2%, 42.8%)" stroke-width="1.5"></path><path d="M1540.74 103.69L1540.74 103.69" stroke="hsl(304.1, 70.2%, 42.8%)" stroke-width="1.5"></path><path d="M1540.74 103.69L1544.41 351.79" stroke="hsl(304.1, 70.2%, 42.8%)" stroke-width="1.5"></path><path d="M1540.74 103.69L1282.74 93.37" stroke="hsl(304.1, 70.2%, 42.8%)" stroke-width="1.5"></path><path d="M1544.41 351.79L1544.41 351.79" stroke="hsl(304.1, 70.2%, 42.8%)" stroke-width="1.5"></path><path d="M1544.41 351.79L1445.42 536.85" stroke="hsl(304.1, 70.2%, 42.8%)" stroke-width="1.5"></path><path d="M1591.57 689.01L1591.57 689.01" stroke="hsl(304.1, 70.2%, 42.8%)" stroke-width="1.5"></path><circle r="25" cx="712.35" cy="367.84" fill="url(#SvgjsRadialGradient1005)"></circle><circle r="25" cx="939.71" cy="380.69" fill="url(#SvgjsRadialGradient1005)"></circle><circle r="25" cx="1087.84" cy="554.7" fill="url(#SvgjsRadialGradient1005)"></circle><circle r="25" cx="1265.97" cy="-68.43" fill="url(#SvgjsRadialGradient1005)"></circle><circle r="25" cx="1310.92" cy="546.97" fill="url(#SvgjsRadialGradient1005)"></circle><circle r="25" cx="1297.33" cy="667.17" fill="url(#SvgjsRadialGradient1005)"></circle><circle r="25" cx="1439.86" cy="375.94" fill="url(#SvgjsRadialGradient1005)"></circle><circle r="25" cx="1441.11" cy="655.15" fill="url(#SvgjsRadialGradient1005)"></circle><circle r="25" cx="1555.46" cy="527.49" fill="url(#SvgjsRadialGradient1005)"></circle><circle r="5" cx="-72.11" cy="503.9" fill="#c78cc3"></circle><circle r="5" cx="-111.05" cy="697.47" fill="#c78cc3"></circle><circle r="5" cx="85.63" cy="509.14" fill="#c78cc3"></circle><circle r="5" cx="54.95" cy="682.2" fill="#c78cc3"></circle><circle r="5" cx="213.92" cy="506.85" fill="#c78cc3"></circle><circle r="5" cx="207.5" cy="651.97" fill="#c78cc3"></circle><circle r="5" cx="353.93" cy="497.24" fill="#c78cc3"></circle><circle r="5" cx="534.12" cy="554.32" fill="#c78cc3"></circle><circle r="5" cx="549.23" cy="691.16" fill="#c78cc3"></circle><circle r="5" cx="681.54" cy="526.2" fill="#c78cc3"></circle><circle r="5" cx="661.48" cy="697.32" fill="#c78cc3"></circle><circle r="5" cx="812.8" cy="362.2" fill="#c78cc3"></circle><circle r="5" cx="797.74" cy="524.47" fill="#c78cc3"></circle><circle r="5" cx="794.67" cy="702.83" fill="#c78cc3"></circle><circle r="5" cx="974.8" cy="491.9" fill="#c78cc3"></circle><circle r="5" cx="948" cy="650.02" fill="#c78cc3"></circle><circle r="5" cx="1106.1" cy="389.3" fill="#c78cc3"></circle><circle r="5" cx="1135.39" cy="657.61" fill="#c78cc3"></circle><circle r="5" cx="1282.74" cy="93.37" fill="#c78cc3"></circle><circle r="5" cx="1286.55" cy="228.67" fill="#c78cc3"></circle><circle r="5" cx="1252.1" cy="384.44" fill="#c78cc3"></circle><circle r="5" cx="1389.96" cy="-74.2" fill="#c78cc3"></circle><circle r="5" cx="1417.41" cy="43.81" fill="#c78cc3"></circle><circle r="5" cx="1432.55" cy="262.08" fill="#c78cc3"></circle><circle r="5" cx="1445.42" cy="536.85" fill="#c78cc3"></circle><circle r="5" cx="1540.74" cy="103.69" fill="#c78cc3"></circle><circle r="5" cx="1544.41" cy="351.79" fill="#c78cc3"></circle><circle r="5" cx="1591.57" cy="689.01" fill="#c78cc3"></circle></g><defs><mask id="SvgjsMask1004"><rect width="1440" height="560" fill="#ffffff"></rect></mask><radialGradient id="SvgjsRadialGradient1005"><stop stop-color="#ffffff" offset="0.1"></stop><stop stop-color="rgba(143, 25, 135, 1)" offset="0.2"></stop><stop stop-color="rgba(143, 25, 135, 0)" offset="1"></stop></radialGradient></defs></svg>